<mxfile host="app.diagrams.net" agent="Mozilla/5.0 (X11; Linux x86_64; rv:122.0) Gecko/20100101 Firefox/122.0" version="27.1.1">
  <diagram name="Page-1" id="pyE0CLivxdcwH7pzbixE">
    <mxGraphModel dx="994" dy="1384" grid="1" gridSize="10" guides="1" tooltips="1" connect="1" arrows="1" fold="1" page="1" pageScale="1" pageWidth="1169" pageHeight="827" math="0" shadow="0">
      <root>
        <mxCell id="0" />
        <mxCell id="1" parent="0" />
        <mxCell id="gbBxgJFXaHMaca9rJOJb-1" value="Raw Images" style="rounded=1;whiteSpace=wrap;html=1;fillColor=#dae8fc;strokeColor=#6c8ebf;" parent="1" vertex="1">
          <mxGeometry x="190" y="-620" width="120" height="40" as="geometry" />
        </mxCell>
        <mxCell id="oGANV4RMe413-Dw2tTk0-1" value="" style="rounded=0;whiteSpace=wrap;html=1;fillColor=none;strokeWidth=2;" vertex="1" parent="1">
          <mxGeometry x="140" y="-700" width="220" height="380" as="geometry" />
        </mxCell>
        <mxCell id="oGANV4RMe413-Dw2tTk0-2" value="&lt;div&gt;&lt;font style=&quot;font-size: 16px;&quot;&gt;Image enhancement&lt;/font&gt;&lt;/div&gt;&lt;br&gt;&lt;font style=&quot;font-size: 16px;&quot;&gt;Figura 1 i 2 &lt;/font&gt;✅" style="rounded=1;whiteSpace=wrap;html=1;fillColor=#f8cecc;strokeColor=#b85450;" vertex="1" parent="1">
          <mxGeometry x="155" y="-690" width="190" height="60" as="geometry" />
        </mxCell>
        <mxCell id="oGANV4RMe413-Dw2tTk0-3" value="Gaussian + Clahe" style="rounded=1;whiteSpace=wrap;html=1;fillColor=#dae8fc;strokeColor=#6c8ebf;" vertex="1" parent="1">
          <mxGeometry x="190" y="-520" width="120" height="40" as="geometry" />
        </mxCell>
        <mxCell id="oGANV4RMe413-Dw2tTk0-4" value="&lt;div&gt;Gaussian + &lt;br&gt;&lt;/div&gt;&lt;div&gt;Histogram Equalization (Ampl contrast)&lt;br&gt;&lt;/div&gt;" style="rounded=1;whiteSpace=wrap;html=1;fillColor=#dae8fc;strokeColor=#6c8ebf;" vertex="1" parent="1">
          <mxGeometry x="185" y="-470" width="120" height="60" as="geometry" />
        </mxCell>
        <mxCell id="oGANV4RMe413-Dw2tTk0-5" value="Gaussian" style="rounded=1;whiteSpace=wrap;html=1;fillColor=#dae8fc;strokeColor=#6c8ebf;" vertex="1" parent="1">
          <mxGeometry x="190" y="-570" width="120" height="40" as="geometry" />
        </mxCell>
        <mxCell id="oGANV4RMe413-Dw2tTk0-6" value="&lt;div&gt;False Colors&lt;/div&gt;L*, a*, b*" style="rounded=1;whiteSpace=wrap;html=1;fillColor=#dae8fc;strokeColor=#6c8ebf;" vertex="1" parent="1">
          <mxGeometry x="180" y="-400" width="130" height="60" as="geometry" />
        </mxCell>
        <mxCell id="oGANV4RMe413-Dw2tTk0-7" value="" style="endArrow=classic;html=1;rounded=0;fontSize=12;startSize=8;endSize=8;curved=1;exitX=0.995;exitY=0.415;exitDx=0;exitDy=0;exitPerimeter=0;" edge="1" parent="1" source="oGANV4RMe413-Dw2tTk0-1">
          <mxGeometry width="50" height="50" relative="1" as="geometry">
            <mxPoint x="370" y="-560" as="sourcePoint" />
            <mxPoint x="390" y="-630" as="targetPoint" />
            <Array as="points" />
          </mxGeometry>
        </mxCell>
        <mxCell id="oGANV4RMe413-Dw2tTk0-8" value="&lt;div&gt;Image preparation for U-Net ✅&lt;/div&gt;&lt;div&gt;&lt;br&gt;&lt;/div&gt;&lt;div&gt;u-net/data/&lt;/div&gt;&lt;div&gt;to_tif_a.ipynb&lt;br&gt;&lt;/div&gt;&lt;div&gt;cut_photos_b.ipynb&lt;br&gt;&lt;/div&gt;" style="rounded=1;whiteSpace=wrap;html=1;fillColor=#d5e8d4;strokeColor=#82b366;" vertex="1" parent="1">
          <mxGeometry x="520" y="-750" width="110" height="120" as="geometry" />
        </mxCell>
        <mxCell id="oGANV4RMe413-Dw2tTk0-9" value="" style="endArrow=classic;html=1;rounded=0;fontSize=12;startSize=8;endSize=8;curved=1;entryX=0;entryY=0.5;entryDx=0;entryDy=0;exitX=0.995;exitY=0.432;exitDx=0;exitDy=0;exitPerimeter=0;" edge="1" parent="1" source="oGANV4RMe413-Dw2tTk0-1" target="oGANV4RMe413-Dw2tTk0-10">
          <mxGeometry width="50" height="50" relative="1" as="geometry">
            <mxPoint x="360" y="-440" as="sourcePoint" />
            <mxPoint x="430" y="-360" as="targetPoint" />
          </mxGeometry>
        </mxCell>
        <mxCell id="oGANV4RMe413-Dw2tTk0-10" value="&lt;div&gt;Automatic detection algorithms&lt;/div&gt;&lt;div&gt;+ Tile pre and post +&lt;/div&gt;&lt;div&gt;2.5D Georefrence&lt;br&gt;&lt;/div&gt;&amp;nbsp;✅" style="rounded=1;whiteSpace=wrap;html=1;fillColor=#d5e8d4;strokeColor=#82b366;" vertex="1" parent="1">
          <mxGeometry x="410" y="-570" width="120" height="70" as="geometry" />
        </mxCell>
        <mxCell id="oGANV4RMe413-Dw2tTk0-11" value="Sobel" style="rounded=1;whiteSpace=wrap;html=1;fillColor=#dae8fc;strokeColor=#6c8ebf;" vertex="1" parent="1">
          <mxGeometry x="410" y="-490" width="110" height="30" as="geometry" />
        </mxCell>
        <mxCell id="oGANV4RMe413-Dw2tTk0-12" value="Frangi" style="rounded=1;whiteSpace=wrap;html=1;fillColor=#dae8fc;strokeColor=#6c8ebf;" vertex="1" parent="1">
          <mxGeometry x="410" y="-440" width="110" height="30" as="geometry" />
        </mxCell>
        <mxCell id="oGANV4RMe413-Dw2tTk0-13" value="Adaptative Threshold" style="rounded=1;whiteSpace=wrap;html=1;fillColor=#dae8fc;strokeColor=#6c8ebf;" vertex="1" parent="1">
          <mxGeometry x="410" y="-390" width="110" height="40" as="geometry" />
        </mxCell>
        <mxCell id="oGANV4RMe413-Dw2tTk0-14" value="" style="rounded=0;whiteSpace=wrap;html=1;fillColor=none;strokeWidth=2;" vertex="1" parent="1">
          <mxGeometry x="390" y="-580" width="160" height="250" as="geometry" />
        </mxCell>
        <mxCell id="oGANV4RMe413-Dw2tTk0-16" value="" style="endArrow=classic;html=1;rounded=0;fontSize=12;startSize=8;endSize=8;curved=1;entryX=-0.001;entryY=0.098;entryDx=0;entryDy=0;entryPerimeter=0;exitX=0.992;exitY=0.401;exitDx=0;exitDy=0;exitPerimeter=0;" edge="1" parent="1" source="oGANV4RMe413-Dw2tTk0-8" target="oGANV4RMe413-Dw2tTk0-29">
          <mxGeometry width="50" height="50" relative="1" as="geometry">
            <mxPoint x="640" y="-705" as="sourcePoint" />
            <mxPoint x="640" y="-690" as="targetPoint" />
          </mxGeometry>
        </mxCell>
        <mxCell id="oGANV4RMe413-Dw2tTk0-17" value="" style="endArrow=classic;html=1;rounded=0;fontSize=12;startSize=8;endSize=8;curved=1;exitX=1;exitY=1;exitDx=0;exitDy=0;" edge="1" parent="1" source="oGANV4RMe413-Dw2tTk0-14">
          <mxGeometry width="50" height="50" relative="1" as="geometry">
            <mxPoint x="600" y="-330" as="sourcePoint" />
            <mxPoint x="670" y="-330" as="targetPoint" />
          </mxGeometry>
        </mxCell>
        <mxCell id="oGANV4RMe413-Dw2tTk0-18" value="Output" style="edgeLabel;html=1;align=center;verticalAlign=middle;resizable=0;points=[];fontSize=12;" vertex="1" connectable="0" parent="oGANV4RMe413-Dw2tTk0-17">
          <mxGeometry x="-0.0877" y="3" relative="1" as="geometry">
            <mxPoint as="offset" />
          </mxGeometry>
        </mxCell>
        <mxCell id="oGANV4RMe413-Dw2tTk0-19" value="&lt;div&gt;GEOJSON 2.5, ✅&lt;/div&gt;&lt;div&gt;compatible sql&lt;br&gt;&lt;/div&gt;" style="rounded=1;whiteSpace=wrap;html=1;fillColor=#fff2cc;strokeColor=#d6b656;" vertex="1" parent="1">
          <mxGeometry x="670" y="-340" width="80" height="50" as="geometry" />
        </mxCell>
        <mxCell id="oGANV4RMe413-Dw2tTk0-20" value="U-Net Modules" style="rounded=1;whiteSpace=wrap;html=1;fillColor=#d5e8d4;strokeColor=#82b366;" vertex="1" parent="1">
          <mxGeometry x="670" y="-730" width="110" height="40" as="geometry" />
        </mxCell>
        <mxCell id="oGANV4RMe413-Dw2tTk0-21" value="Data augmentation ✅" style="rounded=1;whiteSpace=wrap;html=1;fillColor=#dae8fc;strokeColor=#6c8ebf;" vertex="1" parent="1">
          <mxGeometry x="660" y="-670" width="120" height="40" as="geometry" />
        </mxCell>
        <mxCell id="oGANV4RMe413-Dw2tTk0-22" value="U-Net created ✅ " style="rounded=1;whiteSpace=wrap;html=1;fillColor=#dae8fc;strokeColor=#6c8ebf;" vertex="1" parent="1">
          <mxGeometry x="660" y="-610" width="120" height="40" as="geometry" />
        </mxCell>
        <mxCell id="oGANV4RMe413-Dw2tTk0-23" value="Dataloader ✅" style="rounded=1;whiteSpace=wrap;html=1;fillColor=#dae8fc;strokeColor=#6c8ebf;" vertex="1" parent="1">
          <mxGeometry x="660" y="-560" width="120" height="40" as="geometry" />
        </mxCell>
        <mxCell id="oGANV4RMe413-Dw2tTk0-24" value="Metric in weigt and biass ✅" style="rounded=1;whiteSpace=wrap;html=1;fillColor=#dae8fc;strokeColor=#6c8ebf;" vertex="1" parent="1">
          <mxGeometry x="660" y="-510" width="120" height="40" as="geometry" />
        </mxCell>
        <mxCell id="oGANV4RMe413-Dw2tTk0-25" value="&lt;div&gt;Hyperparametrizacion&lt;/div&gt;&lt;div&gt;Optuna&lt;/div&gt;&lt;div&gt;In progress...&lt;br&gt;&lt;/div&gt;" style="rounded=1;whiteSpace=wrap;html=1;fillColor=#dae8fc;strokeColor=#6c8ebf;" vertex="1" parent="1">
          <mxGeometry x="660" y="-460" width="120" height="50" as="geometry" />
        </mxCell>
        <mxCell id="oGANV4RMe413-Dw2tTk0-26" value="&lt;div&gt;Image Tagging&lt;/div&gt;&lt;div&gt;workflow and code done,&lt;/div&gt;&lt;div&gt;Tagging NOT ❌&lt;/div&gt;&lt;div&gt;create_annotations/&lt;/div&gt;&lt;div&gt;create_binary_mask_&lt;/div&gt;&lt;div&gt;supervisely.ipynb&lt;br&gt;&lt;/div&gt;&lt;div&gt;&lt;br&gt;&lt;/div&gt;" style="rounded=1;whiteSpace=wrap;html=1;fillColor=#d5e8d4;strokeColor=#82b366;" vertex="1" parent="1">
          <mxGeometry x="370" y="-760" width="120" height="130" as="geometry" />
        </mxCell>
        <mxCell id="oGANV4RMe413-Dw2tTk0-27" value="" style="endArrow=classic;html=1;rounded=0;fontSize=12;startSize=8;endSize=8;curved=1;entryX=0.022;entryY=0.693;entryDx=0;entryDy=0;entryPerimeter=0;exitX=1.028;exitY=0.712;exitDx=0;exitDy=0;exitPerimeter=0;" edge="1" parent="1" source="oGANV4RMe413-Dw2tTk0-26" target="oGANV4RMe413-Dw2tTk0-8">
          <mxGeometry width="50" height="50" relative="1" as="geometry">
            <mxPoint x="500" y="-660" as="sourcePoint" />
            <mxPoint x="500" y="-700" as="targetPoint" />
          </mxGeometry>
        </mxCell>
        <mxCell id="oGANV4RMe413-Dw2tTk0-28" value="Cross Validation&amp;nbsp;❌ " style="rounded=1;whiteSpace=wrap;html=1;fillColor=#dae8fc;strokeColor=#6c8ebf;" vertex="1" parent="1">
          <mxGeometry x="660" y="-400" width="120" height="40" as="geometry" />
        </mxCell>
        <mxCell id="oGANV4RMe413-Dw2tTk0-29" value="" style="rounded=0;whiteSpace=wrap;html=1;fillColor=none;" vertex="1" parent="1">
          <mxGeometry x="650" y="-740" width="140" height="390" as="geometry" />
        </mxCell>
        <mxCell id="oGANV4RMe413-Dw2tTk0-30" value="" style="endArrow=classic;html=1;rounded=0;fontSize=12;startSize=8;endSize=8;curved=1;" edge="1" parent="1">
          <mxGeometry width="50" height="50" relative="1" as="geometry">
            <mxPoint x="790" y="-710" as="sourcePoint" />
            <mxPoint x="820" y="-710" as="targetPoint" />
          </mxGeometry>
        </mxCell>
        <mxCell id="oGANV4RMe413-Dw2tTk0-31" value="Model Inference ❌ " style="rounded=1;whiteSpace=wrap;html=1;fillColor=#dae8fc;strokeColor=#6c8ebf;" vertex="1" parent="1">
          <mxGeometry x="820" y="-730" width="120" height="40" as="geometry" />
        </mxCell>
        <mxCell id="oGANV4RMe413-Dw2tTk0-32" value="3D georeference ❌ " style="rounded=1;whiteSpace=wrap;html=1;fillColor=#dae8fc;strokeColor=#6c8ebf;" vertex="1" parent="1">
          <mxGeometry x="820" y="-670" width="120" height="40" as="geometry" />
        </mxCell>
        <mxCell id="oGANV4RMe413-Dw2tTk0-33" value="Save geojson to sql ❌ " style="rounded=1;whiteSpace=wrap;html=1;fillColor=#dae8fc;strokeColor=#6c8ebf;" vertex="1" parent="1">
          <mxGeometry x="820" y="-610" width="120" height="40" as="geometry" />
        </mxCell>
        <mxCell id="oGANV4RMe413-Dw2tTk0-34" value="Exploit sql capabilities ❌ " style="rounded=1;whiteSpace=wrap;html=1;fillColor=#dae8fc;strokeColor=#6c8ebf;" vertex="1" parent="1">
          <mxGeometry x="820" y="-550" width="120" height="40" as="geometry" />
        </mxCell>
      </root>
    </mxGraphModel>
  </diagram>
</mxfile>
